<?xml version="1.0" encoding="utf-8"?>
<!-- Generator: Adobe Illustrator 18.0.0, SVG Export Plug-In . SVG Version: 6.00 Build 0)  -->
<!DOCTYPE svg PUBLIC "-//W3C//DTD SVG 1.1//EN" "http://www.w3.org/Graphics/SVG/1.1/DTD/svg11.dtd">
<svg version="1.1" id="Layer_1" xmlns="http://www.w3.org/2000/svg" xmlns:xlink="http://www.w3.org/1999/xlink" x="0px" y="0px"
	 width="31px" height="31px" viewBox="0 0 31 31" enable-background="new 0 0 31 31" xml:space="preserve">
<g>
	<path fill="#FFFFFF" d="M28,2H16c-0.6,0-1,0.4-1,1s0.4,1,1,1h9.6L3.3,26.3c-0.4,0.4-0.4,1,0,1.4C3.5,27.9,3.7,28,4,28
		s0.5-0.1,0.7-0.3L27,5.4V15c0,0.6,0.4,1,1,1s1-0.4,1-1V3C29,2.4,28.6,2,28,2z"/>
	<g opacity="0.4">
		<path d="M28,2c0.6,0,1,0.4,1,1v12c0,0.6-0.4,1-1,1s-1-0.4-1-1V5.4L4.7,27.7C4.5,27.9,4.3,28,4,28s-0.5-0.1-0.7-0.3
			c-0.4-0.4-0.4-1,0-1.4L25.6,4H16c-0.6,0-1-0.4-1-1s0.4-1,1-1H28 M28,1H16c-1.1,0-2,0.9-2,2s0.9,2,2,2h7.2L2.6,25.6
			C2.2,26,2,26.5,2,27s0.2,1,0.6,1.4C3,28.8,3.5,29,4,29c0.5,0,1-0.2,1.4-0.6L26,7.8V15c0,1.1,0.9,2,2,2s2-0.9,2-2V3
			C30,1.9,29.1,1,28,1L28,1z"/>
	</g>
</g>
</svg>