<svg id="Layer_1" data-name="Layer 1" xmlns="http://www.w3.org/2000/svg" width="31" height="31" viewBox="0 0 31 31">
  <defs>
    <style>
      .cls-1 {
        opacity: 0.4;
      }

      .cls-2 {
        fill: #fff;
      }
    </style>
  </defs>
  <title>new-box-icon</title>
  <path class="cls-1" d="M29,17V4a2,2,0,0,0-2-2H3A2,2,0,0,0,1,4V28a2,2,0,0,0,2,2H16a2,2,0,0,0,1.5-.69A2,2,0,0,0,19,30h8a2,2,0,0,0,2-2V20a2,2,0,0,0-.69-1.5A2,2,0,0,0,29,17Zm-4,3v6H19a2,2,0,0,0-1.5.69A2,2,0,0,0,16,26H5V6H25V17a2,2,0,0,0,.69,1.5A2,2,0,0,0,25,20Z"/>
  <g>
    <path class="cls-2" d="M26,27H19a1,1,0,0,0-1,1h0a1,1,0,0,0,1,1h8a1,1,0,0,0,1-1V20a1,1,0,0,0-1-1h0a1,1,0,0,0-1,1v7Z"/>
    <path class="cls-2" d="M27,3H3A1,1,0,0,0,2,4V28a1,1,0,0,0,1,1H16a1,1,0,0,0,0-2H4V5H26V17a1,1,0,0,0,2,0V4A1,1,0,0,0,27,3Z"/>
  </g>
</svg>
