<svg xmlns="http://www.w3.org/2000/svg" xmlns:xlink="http://www.w3.org/1999/xlink" width="47" height="2081" viewBox="0 0 47 2081"><svg viewBox="0 0 47 47" enable-background="new 0 0 47 47" width="47" height="47" id="arrow-1" y="0"><path fill="none" d="M0 0h47v47H0z"/><path stroke="#fff" stroke-width="2" stroke-linecap="round" stroke-linejoin="round" stroke-miterlimit="10" fill="none" d="M31 30l5-7-5-7"/><path fill="#313639" stroke="#fff" stroke-width="2" stroke-linecap="round" stroke-miterlimit="10" d="M36 23H11"/></svg><svg viewBox="0 0 47 47" enable-background="new 0 0 47 47" width="47" height="47" id="arrow-2" y="47"><path fill="none" d="M0 0h47v47H0z"/><path stroke="#fff" stroke-width="2" stroke-linecap="round" stroke-linejoin="round" stroke-miterlimit="10" fill="none" d="M31 30l5-7-5-7M16 16l-5 7 5 7"/><path fill="#313639" stroke="#fff" stroke-width="2" stroke-linecap="round" stroke-miterlimit="10" d="M36 23H11"/></svg><svg viewBox="0 0 47 47" enable-background="new 0 0 47 47" width="47" height="47" id="arrow-3" y="94"><path fill="none" d="M0 0h47v47H0z"/><path fill="#313639" stroke="#fff" stroke-width="2" stroke-linecap="round" stroke-miterlimit="10" d="M36 23H11"/></svg><svg viewBox="0 0 47 47" enable-background="new 0 0 47 47" width="47" height="47" id="arrow-4" y="141"><path fill="none" d="M0 0h47v47H0z"/><g stroke="#fff" stroke-width="2" stroke-linecap="round" stroke-miterlimit="10" fill="none"><path d="M36 23h-1.5"/><path stroke-dasharray="2.64,3.52" d="M31 23H14.3"/><path d="M12.5 23H11"/></g></svg><svg viewBox="0 0 47 47" enable-background="new 0 0 47 47" width="47" height="47" id="box-1" y="188"><g fill="none"><path d="M0 0h47v47H0z"/><path stroke="#fff" stroke-width="2" stroke-linejoin="round" stroke-miterlimit="10" d="M9 12h29v23H9z"/></g></svg><svg viewBox="0 0 47 47" enable-background="new 0 0 47 47" width="47" height="47" id="box-2" y="235"><g fill="none"><path d="M0 0h47v47H0z"/><ellipse stroke="#fff" stroke-width="2" stroke-linejoin="round" stroke-miterlimit="10" cx="23.5" cy="23.5" rx="14.5" ry="11.5"/></g></svg><svg viewBox="0 0 47 47" enable-background="new 0 0 47 47" width="47" height="47" id="box-3" y="282"><path fill="none" d="M0 0h47v47H0z"/><g stroke="#fff" stroke-width="2" stroke-linecap="round" stroke-linejoin="round" fill="none"><path d="M38 33.5V35h-1.5"/><path stroke-dasharray="3.12,4.16" d="M32.3 35H12.6"/><path d="M10.5 35H9v-1.5"/><path stroke-dasharray="3.3333,4.4444" d="M9 29.1V15.7"/><path d="M9 13.5V12h1.5"/><path stroke-dasharray="3.12,4.16" d="M14.7 12h19.7"/><path d="M36.5 12H38v1.5"/><path stroke-dasharray="3.3333,4.4444" d="M38 17.9v13.4"/></g></svg><svg viewBox="0 0 47 47" enable-background="new 0 0 47 47" width="47" height="47" id="box-4" y="329"><path fill="none" d="M0 0h47v47H0z"/><ellipse stroke="#fff" stroke-width="2" stroke-linecap="round" stroke-linejoin="round" stroke-dasharray="2.9261,3.9015" cx="23.5" cy="23.5" rx="14.5" ry="11.5" fill="none"/></svg><svg viewBox="0 0 47 47" enable-background="new 0 0 47 47" width="47" height="47" id="eyedropper-1" y="376"><path fill="none" d="M0 0h47v47H0z"/><g fill="#fff"><path d="M18 16v-4.4h-5.9V16h-.8V6.7h.8v4.2H18V6.7h.8V16H18zM21.1 16V6.7H27v.7h-5.1v3.5h5v.7h-5v3.7H27v.7h-5.9zM35.6 16l-3.3-4.2-3.2 4.2h-1l3.8-4.8-3.6-4.6h1l3 4 3-4h1l-3.5 4.5 3.8 4.8h-1z"/></g><g fill="#FFF"><path d="M7.2 33l.7-2H6.6l-.7 2h-.5l.7-2H4.9l.1-.5h1.2l.8-2.3H5.8l.1-.5h1.3l.7-2h.5l-.7 2H9l.7-2h.5l-.7 2h1.2l-.1.5H9.3l-.8 2.3h1.3l-.1.5H8.4l-.7 2h-.5zm1.6-4.8H7.5l-.8 2.3H8l.8-2.3zM11.6 29.3c0-1.7.7-3.8 2.7-3.8s2.7 2 2.7 3.8c0 1.7-.7 3.8-2.7 3.8s-2.7-2-2.7-3.8zm4.8 0c0-1.5-.5-3.2-2-3.2-1.6 0-2.1 1.7-2.1 3.2 0 1.5.5 3.2 2.1 3.2 1.4.1 2-1.7 2-3.2zM18.3 29.3c0-1.7.7-3.8 2.7-3.8s2.7 2 2.7 3.8c0 1.7-.7 3.8-2.7 3.8s-2.7-2-2.7-3.8zm4.7 0c0-1.5-.5-3.2-2-3.2-1.6 0-2.1 1.7-2.1 3.2 0 1.5.5 3.2 2.1 3.2 1.5.1 2-1.7 2-3.2zM25.2 33v-7.3h.6v2.9c.4-.6 1.1-1 1.8-1 1.4 0 2.4 1.1 2.4 2.8 0 1.7-1 2.8-2.4 2.8-.8 0-1.5-.4-1.8-1v.8h-.6zm2.4-.4c1.2 0 1.9-1 1.9-2.3s-.7-2.3-1.9-2.3c-.7 0-1.4.5-1.8 1v2.6c.3.6 1 1 1.8 1zM34.5 33v-2H31v-.6l3.3-4.8h.8v4.8h1.1v.6h-1.1v2h-.6zm0-6.7l-2.8 4.1h2.8v-4.1zM37.7 33v-4.8h-.9v-.5h.9v-.5c0-1 .6-1.7 1.4-1.7.4 0 .7.1 1 .4l-.3.4c-.2-.2-.4-.3-.7-.3-.6 0-.9.4-.9 1.2v.5h1.1v.5h-1.1V33h-.5zm2.9 0v-4.8h-.9v-.5h.9v-.5c0-1 .6-1.7 1.4-1.7.4 0 .7.1 1 .4l-.3.4c-.2-.2-.4-.3-.7-.3-.6 0-.9.4-.9 1.2v.5h1.1v.5h-1.1V33h-.5z"/></g></svg><svg viewBox="0 0 47 47" enable-background="new 0 0 47 47" width="47" height="47" id="eyedropper-2" y="423"><path fill="none" d="M0 0h47v47H0z"/><g fill="#fff"><path d="M16.7 16l-2.6-3.9H12V16h-.8V6.7h3.5c1.6 0 2.8 1 2.8 2.7 0 1.7-1.2 2.6-2.6 2.7l2.7 3.9h-.9zm0-6.6c0-1.2-.8-2-2.1-2H12v4h2.6c1.3 0 2.1-.8 2.1-2zM19.2 11.3c0-2.9 2.1-4.8 4.7-4.8 1.5 0 2.7.6 3.5 1.6l-.6.4c-.7-.8-1.7-1.3-2.9-1.3-2.2 0-3.9 1.7-3.9 4.1 0 2.4 1.7 4.1 3.9 4.1 1.2 0 2.2-.6 2.7-1.1v-2.2h-3.5v-.7h4.3v3.3c-.8.9-2.1 1.6-3.5 1.6-2.6-.1-4.7-2.1-4.7-5zM29.5 16V6.7h3.8c1.6 0 2.6.9 2.6 2.4 0 1.2-.8 2-1.6 2.1 1 .2 1.8 1.2 1.8 2.3 0 1.6-1 2.5-2.7 2.5h-3.9zm5.6-6.9c0-1-.6-1.7-1.8-1.7h-2.9v3.5h2.9c1.1-.1 1.8-.8 1.8-1.8zm.2 4.3c0-1-.7-1.8-2-1.8h-3v3.7h3c1.2 0 2-.7 2-1.9z"/></g><path fill="#f00" d="M4 20h39v4H4z"/><path fill="#0f0" d="M4 26h39v4H4z"/><path fill="#00f" d="M4 32h39v4H4z"/></svg><svg viewBox="0 0 47 47" enable-background="new 0 0 47 47" width="47" height="47" id="eyedropper-3" y="470"><path fill="none" d="M0 0h47v47H0z"/><g fill="#fff"><path d="M5.7 11.3c0-2.9 2.1-4.8 4.7-4.8 1.5 0 2.6.7 3.4 1.7l-.7.4c-.6-.8-1.6-1.4-2.7-1.4-2.2 0-3.9 1.7-3.9 4.1 0 2.4 1.7 4.1 3.9 4.1 1.1 0 2.1-.5 2.7-1.4l.7.4c-.8 1-1.9 1.7-3.4 1.7-2.7.1-4.7-1.9-4.7-4.8zM23.3 16V7.7L19.9 16h-.3l-3.4-8.3V16h-.8V6.7h1.2l3.2 7.7L23 6.7h1.2V16h-.9zM29.2 16v-4l-3.7-5.4h1l3.2 4.6 3.2-4.6h1L30 12v4h-.8zM40.8 16L37 11.6l-1 1.1V16h-.8V6.7h.8v5.1l4.5-5.1h1l-4 4.5 4.4 4.9h-1.1z"/></g><path stroke-width="1px" stroke="#00FFFF" fill="#00AEEF" d="M4 20h39v4H4z"/><path fill="#EC008C" d="M4 27h39v4H4z"/><path fill="#FFF200" d="M4 33h39v4H4z"/><path fill="#666" d="M4 39h39v4H4z"/></svg><svg viewBox="0 0 47 47" enable-background="new 0 0 47 47" width="47" height="47" id="eyedropper-4" y="517"><path fill="none" d="M0 0h47v47H0z"/><g fill="#fff"><path d="M17.9 16v-4.4H12V16h-.8V6.7h.8v4.2h5.9V6.7h.8V16h-.8zM20.5 14.7l.5-.6c.6.7 1.6 1.4 2.9 1.4 1.9 0 2.5-1.1 2.5-1.9 0-2.7-5.6-1.3-5.6-4.6 0-1.5 1.4-2.5 3.1-2.5 1.4 0 2.4.5 3.2 1.3l-.5.6c-.7-.8-1.6-1.2-2.7-1.2-1.2 0-2.2.7-2.2 1.7 0 2.4 5.6 1.1 5.6 4.6 0 1.2-.8 2.6-3.3 2.6-1.7.1-2.8-.5-3.5-1.4zM32 16l-3.8-9.3h.9l3.4 8.4 3.4-8.4h.9L33 16h-1z"/></g><linearGradient id="la" gradientUnits="userSpaceOnUse" x1="4" y1="22" x2="43" y2="22"><stop offset="0" stop-color="#f00"/><stop offset=".15" stop-color="#FFE100"/><stop offset=".3" stop-color="#37FD00"/><stop offset=".45" stop-color="#00FDC2"/><stop offset=".6" stop-color="#00DFFD"/><stop offset=".75" stop-color="#0098FD"/><stop offset=".9" stop-color="#5D00FD"/><stop offset="1" stop-color="#FD0083"/></linearGradient><path fill="url(#la)" d="M4 20h39v4H4z"/><linearGradient id="lb" gradientUnits="userSpaceOnUse" x1="4" y1="28" x2="43" y2="28"><stop offset="0" stop-color="#00B4FF"/><stop offset="1" stop-color="#fff"/></linearGradient><path fill="url(#lb)" d="M4 26h39v4H4z"/><linearGradient id="lc" gradientUnits="userSpaceOnUse" x1="4" y1="34" x2="43" y2="34"><stop offset="0"/><stop offset="1" stop-color="#00B4FF"/></linearGradient><path fill="url(#lc)" d="M4 32h39v4H4z"/></svg><svg viewBox="0 0 47 47" enable-background="new 0 0 47 47" width="47" height="47" id="pencil-1" y="564"><path fill="none" d="M0 0h47v47H0z"/><path fill="#313639" stroke="#fff" stroke-width="2" stroke-linecap="round" stroke-miterlimit="10" d="M36 23H11"/></svg><svg viewBox="0 0 47 47" enable-background="new 0 0 47 47" width="47" height="47" id="pencil-2" y="611"><path fill="none" d="M0 0h47v47H0z"/><g stroke="#fff" stroke-width="2" stroke-linecap="round" stroke-miterlimit="10" fill="none"><path d="M36 23h-1.5"/><path stroke-dasharray="2.64,3.52" d="M31 23H14.3"/><path d="M12.5 23H11"/></g></svg><svg viewBox="0 0 47 47" enable-background="new 0 0 47 47" width="47" height="47" id="ruler-1" y="658"><g><rect fill="none" width="47" height="47"/><g><rect x="7" y="34" fill="#FFFFFF" width="1" height="1"/><rect x="9" y="34" fill="#FFFFFF" width="1" height="1"/><rect x="11" y="34" fill="#FFFFFF" width="1" height="1"/><rect x="13" y="34" fill="#FFFFFF" width="1" height="1"/><rect x="15" y="34" fill="#FFFFFF" width="1" height="1"/><rect x="17" y="34" fill="#FFFFFF" width="1" height="1"/><rect x="19" y="34" fill="#FFFFFF" width="1" height="1"/><rect x="21" y="34" fill="#FFFFFF" width="1" height="1"/><rect x="23" y="34" fill="#FFFFFF" width="1" height="1"/><rect x="25" y="34" fill="#FFFFFF" width="1" height="1"/><rect x="27" y="34" fill="#FFFFFF" width="1" height="1"/><rect x="29" y="34" fill="#FFFFFF" width="1" height="1"/><rect x="31" y="34" fill="#FFFFFF" width="1" height="1"/><rect x="33" y="34" fill="#FFFFFF" width="1" height="1"/><rect x="35" y="34" fill="#FFFFFF" width="1" height="1"/><rect x="37" y="34" fill="#FFFFFF" width="1" height="1"/><rect x="39" y="34" fill="#FFFFFF" width="1" height="1"/></g><g><path fill="#FFFFFF" d="M16,24.5v5h-1V16.8h1v1.4c0.6-0.9,1.8-1.7,3.2-1.7c2.5,0,4.1,1.9,4.1,4.8c0,2.9-1.7,4.8-4.1,4.8 C17.9,26.2,16.7,25.6,16,24.5z M22.2,21.4c0-2.2-1.2-3.9-3.2-3.9c-1.3,0-2.5,0.8-3,1.6v4.5c0.5,0.9,1.7,1.7,3,1.7 C21.1,25.3,22.2,23.6,22.2,21.4z"/><path fill="#FFFFFF" d="M31.1,26l-3-4L25,26h-1.2l3.6-4.7L24,16.8h1.2l2.8,3.8l2.8-3.8h1.2l-3.4,4.5l3.6,4.7H31.1z"/></g></g></svg><svg viewBox="0 0 47 47" enable-background="new 0 0 47 47" width="47" height="47" id="ruler-2" y="705"><g><rect fill="none" width="47" height="47"/><polygon fill="#FFFFFF" points="39,31 39,34 8,34 8,31 7,31 7,35 40,35 40,31"/><g><path fill="#FFFFFF" d="M18,14.6c0-0.4,0.4-0.7,0.8-0.7c0.4,0,0.8,0.3,0.8,0.7s-0.3,0.8-0.8,0.8C18.4,15.4,18,15,18,14.6z M18.3,26v-9.2h1V26H18.3z"/><path fill="#FFFFFF" d="M28.5,26v-6.2c0-1.8-0.9-2.3-2.2-2.3c-1.2,0-2.4,0.7-3,1.6V26h-1v-9.2h1v1.4c0.7-0.8,2-1.6,3.3-1.6 c1.9,0,2.9,0.9,2.9,3V26H28.5z"/></g></g></svg><svg viewBox="0 0 47 47" enable-background="new 0 0 47 47" width="47" height="47" id="ruler-3" y="752"><g><rect fill="none" width="47" height="47"/><polygon fill="#FFFFFF" points="39,31 39,34 24,34 24,31 23,31 23,34 8,34 8,31 7,31 7,35 40,35 40,31 	"/><g><path fill="#FFFFFF" d="M12,21.4c0-2.7,1.8-4.8,4.5-4.8c1.6,0,2.5,0.6,3.2,1.6L19,18.8c-0.7-0.9-1.5-1.3-2.5-1.3 c-2.1,0-3.5,1.7-3.5,3.9c0,2.2,1.3,3.9,3.5,3.9c1,0,1.8-0.4,2.5-1.3l0.7,0.6c-0.7,1-1.7,1.6-3.2,1.6C13.8,26.2,12,24.1,12,21.4z"/><path fill="#FFFFFF" d="M32.8,26v-6.4c0-1.3-0.6-2.1-1.8-2.1c-1,0-2.1,0.7-2.6,1.6v7h-1v-6.4c0-1.3-0.5-2.1-1.8-2.1 c-1,0-2.1,0.7-2.6,1.6V26h-1v-9.2h1v1.4c0.4-0.6,1.6-1.6,3-1.6c1.4,0,2.2,0.8,2.4,1.7c0.5-0.9,1.7-1.7,3-1.7c1.7,0,2.5,1,2.5,2.8 V26H32.8z"/></g></g></svg><svg viewBox="0 0 47 47" enable-background="new 0 0 47 47" width="47" height="47" id="ruler-4" y="799"><g><rect fill="none" width="47" height="47"/><g><polygon fill="#FFFFFF" points="39,31 39,34 36,34 36,31 35,31 35,34 32,34 32,31 31,31 31,34 28,34 28,31 27,31 27,34 24,34 24,31 23,31 23,34 20,34 20,31 19,31 19,34 16,34 16,31 15,31 15,34 12,34 12,31 11,31 11,34 8,34 8,31 7,31 7,35 40,35 40,31"/></g><g><path fill="#FFFFFF" d="M21.9,26v-6.4c0-1.3-0.6-2.1-1.8-2.1c-1,0-2.1,0.7-2.6,1.6v7h-1v-6.4c0-1.3-0.5-2.1-1.8-2.1 c-1,0-2.1,0.7-2.6,1.6V26h-1v-9.2h1v1.4c0.4-0.6,1.6-1.6,3-1.6c1.4,0,2.2,0.8,2.4,1.7c0.5-0.9,1.7-1.7,3-1.7c1.7,0,2.5,1,2.5,2.8 V26H21.9z"/><path fill="#FFFFFF" d="M36.9,26v-6.4c0-1.3-0.6-2.1-1.8-2.1c-1,0-2.1,0.7-2.6,1.6v7h-1v-6.4c0-1.3-0.5-2.1-1.8-2.1 c-1,0-2.1,0.7-2.6,1.6V26h-1v-9.2h1v1.4c0.4-0.6,1.6-1.6,3-1.6c1.4,0,2.2,0.8,2.4,1.7c0.5-0.9,1.7-1.7,3-1.7c1.7,0,2.5,1,2.5,2.8 V26H36.9z"/></g></g></svg><svg viewBox="0 0 1 47" enable-background="new 0 0 1 47" width="1" height="47" id="seperator-line" y="846"><linearGradient id="sa" gradientUnits="userSpaceOnUse" x1="964.5" y1="-403" x2="1011.5" y2="-403" gradientTransform="matrix(0 -1 1 0 403.5 1011.5)"><stop offset="0" stop-color="#fff" stop-opacity="0"/><stop offset=".5" stop-color="#fff"/><stop offset="1" stop-color="#fff" stop-opacity="0"/></linearGradient><path opacity=".2" fill="url(#sa)" d="M0 0h1v47H0z"/></svg><svg width="43.47826086956522" height="1000" viewBox="0 0 47 1081" id="sprite" y="893"><svg viewBox="0 0 47 47" width="47" height="47"><path d="M0 0h47v47H0z" fill="none"/><path stroke="#fff" stroke-width="2" stroke-linecap="round" stroke-linejoin="round" stroke-miterlimit="10" d="M31 30l5-7-5-7" fill="none"/><path fill="#313639" stroke="#fff" stroke-width="2" stroke-linecap="round" stroke-miterlimit="10" d="M36 23H11"/></svg><svg viewBox="0 0 47 47" width="47" height="47" y="47"><path d="M0 0h47v47H0z" fill="none"/><path stroke="#fff" stroke-width="2" stroke-linecap="round" stroke-linejoin="round" stroke-miterlimit="10" d="M31 30l5-7-5-7m-15 0l-5 7 5 7" fill="none"/><path fill="#313639" stroke="#fff" stroke-width="2" stroke-linecap="round" stroke-miterlimit="10" d="M36 23H11"/></svg><svg viewBox="0 0 47 47" width="47" height="47" y="94"><path d="M0 0h47v47H0z" fill="none"/><path fill="#313639" stroke="#fff" stroke-width="2" stroke-linecap="round" stroke-miterlimit="10" d="M36 23H11"/></svg><svg viewBox="0 0 47 47" width="47" height="47" y="141"><path d="M0 0h47v47H0z" fill="none"/><g stroke="#fff" stroke-width="2" stroke-linecap="round" stroke-miterlimit="10" fill="none"><path d="M36 23h-1.5M31 23H14.3M12.5 23H11"/></g></svg><svg viewBox="0 0 47 47" width="47" height="47" y="188"><g fill="none"><path d="M0 0h47v47H0z"/><path stroke="#fff" stroke-width="2" stroke-linejoin="round" stroke-miterlimit="10" d="M9 12h29v23H9z"/></g></svg><svg viewBox="0 0 47 47" width="47" height="47" y="235"><g fill="none"><path d="M0 0h47v47H0z"/><ellipse stroke="#fff" stroke-width="2" stroke-linejoin="round" stroke-miterlimit="10" cx="23.5" cy="23.5" rx="14.5" ry="11.5"/></g></svg><svg viewBox="0 0 47 47" width="47" height="47" y="282"><path d="M0 0h47v47H0z" fill="none"/><g stroke="#fff" stroke-width="2" stroke-linecap="round" stroke-linejoin="round" fill="none"><path d="M38 33.5V35h-1.5M32.3 35H12.6M10.5 35H9v-1.5M9 29.1V15.7M9 13.5V12h1.5M14.7 12h19.7M36.5 12H38v1.5M38 17.9v13.4"/></g></svg><svg viewBox="0 0 47 47" width="47" height="47" y="329"><path d="M0 0h47v47H0z" fill="none"/><ellipse stroke="#fff" stroke-width="2" stroke-linecap="round" stroke-linejoin="round" stroke-dasharray="2.9261,3.9015" cx="23.5" cy="23.5" rx="14.5" ry="11.5" fill="none"/></svg><svg viewBox="0 0 47 47" width="47" height="47" y="376"><path d="M0 0h47v47H0z" fill="none"/><path d="M18 16v-4.4h-5.9V16h-.8V6.7h.8v4.2H18V6.7h.8V16H18zm3.1 0V6.7H27v.7h-5.1v3.5h5v.7h-5v3.7H27v.7h-5.9zm14.5 0l-3.3-4.2-3.2 4.2h-1l3.8-4.8-3.6-4.6h1l3 4 3-4h1l-3.5 4.5 3.8 4.8h-1z" fill="#fff"/><path d="M7.2 33l.7-2H6.6l-.7 2h-.5l.7-2H4.9l.1-.5h1.2l.8-2.3H5.8l.1-.5h1.3l.7-2h.5l-.7 2H9l.7-2h.5l-.7 2h1.2l-.1.5H9.3l-.8 2.3h1.3l-.1.5H8.4l-.7 2h-.5zm1.6-4.8H7.5l-.8 2.3H8l.8-2.3zm2.8 1.1c0-1.7.7-3.8 2.7-3.8s2.7 2 2.7 3.8c0 1.7-.7 3.8-2.7 3.8s-2.7-2-2.7-3.8zm4.8 0c0-1.5-.5-3.2-2-3.2-1.6 0-2.1 1.7-2.1 3.2 0 1.5.5 3.2 2.1 3.2 1.4.1 2-1.7 2-3.2zm1.9 0c0-1.7.7-3.8 2.7-3.8s2.7 2 2.7 3.8c0 1.7-.7 3.8-2.7 3.8s-2.7-2-2.7-3.8zm4.7 0c0-1.5-.5-3.2-2-3.2-1.6 0-2.1 1.7-2.1 3.2 0 1.5.5 3.2 2.1 3.2 1.5.1 2-1.7 2-3.2zm2.2 3.7v-7.3h.6v2.9c.4-.6 1.1-1 1.8-1 1.4 0 2.4 1.1 2.4 2.8 0 1.7-1 2.8-2.4 2.8-.8 0-1.5-.4-1.8-1v.8h-.6zm2.4-.4c1.2 0 1.9-1 1.9-2.3s-.7-2.3-1.9-2.3c-.7 0-1.4.5-1.8 1v2.6c.3.6 1 1 1.8 1zm6.9.4v-2H31v-.6l3.3-4.8h.8v4.8h1.1v.6h-1.1v2h-.6zm0-6.7l-2.8 4.1h2.8v-4.1zm3.2 6.7v-4.8h-.9v-.5h.9v-.5c0-1 .6-1.7 1.4-1.7.4 0 .7.1 1 .4l-.3.4c-.2-.2-.4-.3-.7-.3-.6 0-.9.4-.9 1.2v.5h1.1v.5h-1.1V33h-.5zm2.9 0v-4.8h-.9v-.5h.9v-.5c0-1 .6-1.7 1.4-1.7.4 0 .7.1 1 .4l-.3.4c-.2-.2-.4-.3-.7-.3-.6 0-.9.4-.9 1.2v.5h1.1v.5h-1.1V33h-.5z" fill="#00B4FF"/></svg><svg viewBox="0 0 47 47" width="47" height="47" y="423"><path d="M0 0h47v47H0z" fill="none"/><path d="M16.7 16l-2.6-3.9H12V16h-.8V6.7h3.5c1.6 0 2.8 1 2.8 2.7 0 1.7-1.2 2.6-2.6 2.7l2.7 3.9h-.9zm0-6.6c0-1.2-.8-2-2.1-2H12v4h2.6c1.3 0 2.1-.8 2.1-2zm2.5 1.9c0-2.9 2.1-4.8 4.7-4.8 1.5 0 2.7.6 3.5 1.6l-.6.4c-.7-.8-1.7-1.3-2.9-1.3-2.2 0-3.9 1.7-3.9 4.1 0 2.4 1.7 4.1 3.9 4.1 1.2 0 2.2-.6 2.7-1.1v-2.2h-3.5v-.7h4.3v3.3c-.8.9-2.1 1.6-3.5 1.6-2.6-.1-4.7-2.1-4.7-5zM29.5 16V6.7h3.8c1.6 0 2.6.9 2.6 2.4 0 1.2-.8 2-1.6 2.1 1 .2 1.8 1.2 1.8 2.3 0 1.6-1 2.5-2.7 2.5h-3.9zm5.6-6.9c0-1-.6-1.7-1.8-1.7h-2.9v3.5h2.9c1.1-.1 1.8-.8 1.8-1.8zm.2 4.3c0-1-.7-1.8-2-1.8h-3v3.7h3c1.2 0 2-.7 2-1.9z" fill="#fff"/><path fill="#f00" d="M4 20h39v4H4z"/><path fill="#0f0" d="M4 26h39v4H4z"/><path fill="#00f" d="M4 32h39v4H4z"/></svg><svg viewBox="0 0 47 47" width="47" height="47" y="470"><path d="M0 0h47v47H0z" fill="none"/><path d="M5.7 11.3c0-2.9 2.1-4.8 4.7-4.8 1.5 0 2.6.7 3.4 1.7l-.7.4c-.6-.8-1.6-1.4-2.7-1.4-2.2 0-3.9 1.7-3.9 4.1 0 2.4 1.7 4.1 3.9 4.1 1.1 0 2.1-.5 2.7-1.4l.7.4c-.8 1-1.9 1.7-3.4 1.7-2.7.1-4.7-1.9-4.7-4.8zM23.3 16V7.7L19.9 16h-.3l-3.4-8.3V16h-.8V6.7h1.2l3.2 7.7L23 6.7h1.2V16h-.9zm5.9 0v-4l-3.7-5.4h1l3.2 4.6 3.2-4.6h1L30 12v4h-.8zm11.6 0L37 11.6l-1 1.1V16h-.8V6.7h.8v5.1l4.5-5.1h1l-4 4.5 4.4 4.9h-1.1z" fill="#fff"/><path fill="#00AEEF" d="M4 20h39v4H4z"/><path fill="#EC008C" d="M4 26h39v4H4z"/><path fill="#FFF200" d="M4 32h39v4H4z"/><path fill="#666" d="M4 38h39v4H4z"/></svg><svg viewBox="0 0 47 47" width="47" height="47" y="517"><path d="M0 0h47v47H0z" fill="none"/><path d="M17.9 16v-4.4H12V16h-.8V6.7h.8v4.2h5.9V6.7h.8V16h-.8zm2.6-1.3l.5-.6c.6.7 1.6 1.4 2.9 1.4 1.9 0 2.5-1.1 2.5-1.9 0-2.7-5.6-1.3-5.6-4.6 0-1.5 1.4-2.5 3.1-2.5 1.4 0 2.4.5 3.2 1.3l-.5.6c-.7-.8-1.6-1.2-2.7-1.2-1.2 0-2.2.7-2.2 1.7 0 2.4 5.6 1.1 5.6 4.6 0 1.2-.8 2.6-3.3 2.6-1.7.1-2.8-.5-3.5-1.4zM32 16l-3.8-9.3h.9l3.4 8.4 3.4-8.4h.9L33 16h-1z" fill="#fff"/><linearGradient id="ta" gradientUnits="userSpaceOnUse" x1="4" y1="22" x2="43" y2="22"><stop offset="0" stop-color="#f00"/><stop offset=".15" stop-color="#FFE100"/><stop offset=".3" stop-color="#37FD00"/><stop offset=".45" stop-color="#00FDC2"/><stop offset=".6" stop-color="#00DFFD"/><stop offset=".75" stop-color="#0098FD"/><stop offset=".9" stop-color="#5D00FD"/><stop offset="1" stop-color="#FD0083"/></linearGradient><path fill="url(#ta)" d="M4 20h39v4H4z"/><linearGradient id="tb" gradientUnits="userSpaceOnUse" x1="4" y1="28" x2="43" y2="28"><stop offset="0" stop-color="#00B4FF"/><stop offset="1" stop-color="#fff"/></linearGradient><path fill="url(#tb)" d="M4 26h39v4H4z"/><linearGradient id="tc" gradientUnits="userSpaceOnUse" x1="4" y1="34" x2="43" y2="34"><stop offset="0"/><stop offset="1" stop-color="#00B4FF"/></linearGradient><path fill="url(#tc)" d="M4 32h39v4H4z"/></svg><svg viewBox="0 0 47 47" width="47" height="47" y="564"><path d="M0 0h47v47H0z" fill="none"/><path fill="#313639" stroke="#fff" stroke-width="2" stroke-linecap="round" stroke-miterlimit="10" d="M36 23H11"/></svg><svg viewBox="0 0 47 47" width="47" height="47" y="611"><path d="M0 0h47v47H0z" fill="none"/><g stroke="#fff" stroke-width="2" stroke-linecap="round" stroke-miterlimit="10" fill="none"><path d="M36 23h-1.5M31 23H14.3M12.5 23H11"/></g></svg><svg viewBox="0 0 47 47" width="47" height="47" y="658"><path d="M0 0h47v47H0z" fill="none"/><path d="M13.8 30V17.3h4.4c2.4 0 3.7 1.7 3.7 3.6 0 1.9-1.4 3.6-3.7 3.6h-3.8V30h-.6zm7.5-9.1c0-1.7-1.2-3-3.1-3h-3.8v6h3.8c1.9 0 3.1-1.2 3.1-3zM33.6 30l-4.8-6-4.8 6h-.8l5.2-6.5-5-6.2h.8l4.5 5.7 4.5-5.7h.8l-5 6.2 5.2 6.5h-.6z" fill="#fff"/></svg><svg viewBox="0 0 47 47" width="47" height="47" y="705"><path d="M0 0h47v47H0z" fill="none"/><path d="M16.6 30V17.3h.6V30h-.6zm13.2 0l-8.5-11.7V30h-.6V17.3h.6l8.5 11.6V17.3h.6V30h-.6z" fill="#fff"/></svg><svg viewBox="0 0 47 47" width="47" height="47" y="752"><path d="M0 0h47v47H0z" fill="none"/><path d="M11.1 23.7c0-3.9 2.8-6.6 6.3-6.6 1.8 0 3.3.7 4.4 2l-.5.4c-.9-1.1-2.4-1.8-3.9-1.8-3.2 0-5.7 2.4-5.7 6 0 3.5 2.5 6 5.7 6 1.6 0 3-.7 3.9-1.8l.5.4c-1.2 1.3-2.6 2-4.4 2-3.5-.1-6.3-2.7-6.3-6.6zM34.9 30V18.1l-5 11.9h-.2l-4.9-11.9V30h-.6V17.3h1l4.7 11.3 4.7-11.3h1V30h-.7z" fill="#fff"/></svg><svg viewBox="0 0 47 47" width="47" height="47" y="799"><path d="M0 0h47v47H0z" fill="none"/><path d="M21.2 30V18.1L16.3 30h-.2l-4.9-11.9V30h-.6V17.3h1l4.7 11.3L21 17.3h1V30h-.8zm14.6 0V18.1L30.9 30h-.2l-4.9-11.9V30h-.6V17.3h1l4.7 11.3 4.7-11.3h1V30h-.8z" fill="#fff"/></svg><svg viewBox="0 0 1 47" width="1" height="47" y="846"><linearGradient id="td" gradientUnits="userSpaceOnUse" x1="964.5" y1="-403" x2="1011.5" y2="-403" gradientTransform="matrix(0 -1 1 0 403.5 1011.5)"><stop offset="0" stop-color="#fff" stop-opacity="0"/><stop offset=".5" stop-color="#fff"/><stop offset="1" stop-color="#fff" stop-opacity="0"/></linearGradient><path opacity=".2" fill="url(#td)" d="M0 0h1v47H0z"/></svg><svg viewBox="0 0 47 47" width="47" height="47" y="893"><path d="M0 0h47v47H0z" fill="none"/><path fill="#00B4FF" d="M11 9h25v29H11z"/><path fill="#fff" d="M34.1 16.3c-.4.1-.8.2-1.2.2 0-.9-.2-2.4-.4-3.6h-7.8v21.5c1.2.2 2.6.3 3.6.4 0 .4-.1.8-.2 1.2H19c-.1-.4-.2-.8-.2-1.2.9 0 2.4-.2 3.6-.4V12.8h-7.8c-.2 1.2-.3 2.6-.4 3.6-.4 0-.8-.1-1.2-.2V11h21.2v1.8l-.1 3.5z"/></svg><svg viewBox="0 0 47 47" width="47" height="47" y="940"><path d="M0 0h47v47H0z" fill="none"/><path fill="#fff" d="M34.1 16.3c-.4.1-.8.2-1.2.2 0-.9-.2-2.4-.4-3.6h-7.8v21.5c1.2.2 2.6.3 3.6.4 0 .4-.1.8-.2 1.2H19c-.1-.4-.2-.8-.2-1.2.9 0 2.4-.2 3.6-.4V12.8h-7.8c-.2 1.2-.3 2.6-.4 3.6-.4 0-.8-.1-1.2-.2V11h21.2v1.8l-.1 3.5z"/><path stroke="#00B4FF" stroke-width="2" stroke-linecap="round" stroke-linejoin="round" stroke-miterlimit="10" d="M30 38l3-4 3 4" fill="none"/><path stroke="#FF2800" stroke-width="2" stroke-linecap="round" stroke-miterlimit="10" d="M11 23h25" fill="none"/></svg><svg viewBox="0 0 47 47" width="47" height="47" y="987"><path d="M0 0h47v47H0z" fill="none"/><path stroke="#00B4FF" stroke-width="2" stroke-linecap="round" stroke-linejoin="round" stroke-miterlimit="10" d="M30 38l3-4 3 4" fill="none"/><path fill="#fff" d="M34.1 16.3c-.4.1-.8.2-1.2.2 0-.9-.2-2.4-.4-3.6h-7.8v21.5c1.2.2 2.6.3 3.6.4 0 .4-.1.8-.2 1.2H19c-.1-.4-.2-.8-.2-1.2.9 0 2.4-.2 3.6-.4V12.8h-7.8c-.2 1.2-.3 2.6-.4 3.6-.4 0-.8-.1-1.2-.2V11h21.2v1.8l-.1 3.5z"/></svg><svg viewBox="0 0 47 47" width="47" height="47" y="1034"><path d="M0 0h47v47H0z" fill="none"/><path fill="#fff" d="M34.1 16.3c-.4.1-.8.2-1.2.2 0-.9-.2-2.4-.4-3.6h-7.8v21.5c1.2.2 2.6.3 3.6.4 0 .4-.1.8-.2 1.2H19c-.1-.4-.2-.8-.2-1.2.9 0 2.4-.2 3.6-.4V12.8h-7.8c-.2 1.2-.3 2.6-.4 3.6-.4 0-.8-.1-1.2-.2V11h21.2v1.8l-.1 3.5z"/><path stroke="#FF2800" stroke-width="2" stroke-linecap="round" stroke-miterlimit="10" d="M11 23h25" fill="none"/></svg></svg>

<svg viewBox="0 0 47 47" enable-background="new 0 0 47 47" width="47" height="47" id="text-1" y="1893">
<g>
	<rect y="0" fill="none" width="47" height="47"/>
	<g>

        <rect x="16.4" y="26.7" transform="matrix(0.7071 0.7071 -0.7071 0.7071 25.9286 -5.7851)" fill="#FFFFFF" width="7.1" height="3.4"/>
		<polygon fill="#FFFFFF" points="17.8,34 12.5,32.3 16,28.8 19.5,32.3 		"/>
		<path fill="#FFFFFF" d="M19.5,23.8l8.9-8.9c1.4-1.4,3.6-1.4,5,0l0,0c1.4,1.4,1.4,3.6,0,5l-8.9,8.9L19.5,23.8z"/>
	</g>
</g>
</svg>

<svg viewBox="0 0 47 47" enable-background="new 0 0 47 47" width="47" height="47" id="text-2" y="1940">
<g>
	<rect fill="none" width="47" height="47"/>
	<g>
		<path fill="#FFFFFF" d="M34,22H14l-2,2h7.1c3.2,1.4,7.8,1.2,7.8,3.5c0,1.4-1.2,2.4-3.6,2.4c-2.4,0-4.9-1.2-6.1-2.5l-1.8,2.8
			C17.2,32,20,33,23.1,33c4.9,0,7.5-2.4,7.5-5.6c0-1.5-0.5-2.6-1.2-3.4H32L34,22z"/>
		<path fill="#FFFFFF" d="M21.5,21c-1.1-0.3-1.8-0.8-1.8-1.6c0-1.3,1.3-2.2,3.4-2.2c2.2,0,4.3,0.9,5.4,2.2l1.6-2.8
			c-1.6-1.5-4-2.5-7-2.5c-4.6,0-7.1,2.5-7.1,5.5c0,0.6,0.1,1,0.2,1.5H21.5z"/>
	</g>
</g>
</svg>

<svg viewBox="0 0 47 47" enable-background="new 0 0 47 47" width="47" height="47" id="text-3" y="1987">
<g>
	<rect y="0" fill="none" width="47" height="47"/>
	<g>
		<rect x="30" y="13" fill="#FFFFFF" width="1" height="19"/>
		<rect x="26" y="11" fill="#FFFFFF" width="2" height="1"/>
		<rect x="28" y="12" fill="#FFFFFF" width="2" height="1"/>
		<rect x="33" y="11" fill="#FFFFFF" width="2" height="1"/>
		<rect x="31" y="12" fill="#FFFFFF" width="2" height="1"/>
		<rect x="33" y="33" fill="#FFFFFF" width="2" height="1"/>
		<rect x="31" y="32" fill="#FFFFFF" width="2" height="1"/>
		<rect x="26" y="33" fill="#FFFFFF" width="2" height="1"/>
		<rect x="28" y="32" fill="#FFFFFF" width="2" height="1"/>
		<path fill="#FFFFFF" d="M21.6,30.7c-1.1,0-1.6-0.9-1.6-2.1V19h3v-3h-3v-5h-4v5h-3v3h3v10.5c0,2.9,1.6,4.5,4.6,4.5
			c1.8,0,3-0.5,3.7-1.1L23.3,30C23,30.4,22.3,30.7,21.6,30.7z"/>
	</g>
</g>
</svg>

<svg viewBox="0 0 47 47" enable-background="new 0 0 47 47" width="47" height="47" id="text-4" y="2034">
<g>
	<rect fill="none" width="47" height="47"/>
	<g>
		<rect x="17" y="13" fill="#FFFFFF" width="1" height="19"/>
		<rect x="13" y="11" fill="#FFFFFF" width="2" height="1"/>
		<rect x="15" y="12" fill="#FFFFFF" width="2" height="1"/>
		<rect x="20" y="11" fill="#FFFFFF" width="2" height="1"/>
		<rect x="18" y="12" fill="#FFFFFF" width="2" height="1"/>
		<rect x="20" y="33" fill="#FFFFFF" width="2" height="1"/>
		<rect x="18" y="32" fill="#FFFFFF" width="2" height="1"/>
		<rect x="13" y="33" fill="#FFFFFF" width="2" height="1"/>
		<rect x="15" y="32" fill="#FFFFFF" width="2" height="1"/>
		<path fill="#FFFFFF" d="M31.6,30.7c-1.1,0-1.6-0.9-1.6-2.1V19h3v-3h-3v-5h-4v5h-3v3h3v10.5c0,2.9,1.6,4.5,4.6,4.5
			c1.8,0,3-0.5,3.7-1.1L33.3,30C33,30.4,32.3,30.7,31.6,30.7z"/>
	</g>
</g>
</svg>
</svg>